<?xml version="1.0" standalone="no"?>
<!DOCTYPE svg PUBLIC "-//W3C//DTD SVG 20010904//EN"
 "http://www.w3.org/TR/2001/REC-SVG-20010904/DTD/svg10.dtd">
<svg version="1.0" xmlns="http://www.w3.org/2000/svg"
 width="2000.000000pt" height="2000.000000pt" viewBox="0 0 2000.000000 2000.000000"
 preserveAspectRatio="xMidYMid meet">
<metadata>
Created by potrace 1.11, written by Peter Selinger 2001-2013
</metadata>
<g transform="translate(0.000000,2000.000000) scale(0.100000,-0.100000)"
fill="#000000" stroke="none">
<path d="M9570 18580 c-1730 -92 -3350 -678 -4725 -1708 -527 -395 -1075 -920
-1490 -1427 -1091 -1332 -1748 -2930 -1909 -4640 -53 -560 -45 -1241 20 -1800
168 -1447 702 -2825 1554 -4011 1284 -1787 3216 -3021 5370 -3429 955 -181
1963 -198 2930 -49 1226 188 2401 645 3440 1337 1781 1187 3056 2991 3575
5061 161 640 240 1252 252 1941 17 1009 -123 1926 -436 2865 -926 2777 -3217
4900 -6056 5611 -484 122 -963 198 -1510 239 -190 15 -812 21 -1015 10z m745
-6950 c647 -131 1158 -625 1301 -1259 130 -578 -45 -1163 -471 -1569 -312
-298 -701 -454 -1135 -455 -294 -1 -505 49 -770 184 -465 237 -787 679 -876
1204 -27 156 -25 449 5 585 154 721 700 1228 1431 1330 107 15 401 4 515 -20z
m-3069 -2237 c95 -421 281 -810 546 -1146 103 -130 324 -351 454 -454 410
-325 897 -527 1429 -595 149 -18 532 -16 685 5 769 107 1440 500 1897 1114
226 303 389 647 476 1003 l23 95 2213 3 2212 2 -6 -72 c-4 -40 -18 -156 -31
-258 -255 -1933 -1284 -3683 -2858 -4857 -1325 -989 -2928 -1490 -4583 -1432
-255 8 -276 10 -523 35 -1037 107 -2052 446 -2955 987 -1743 1045 -2976 2781
-3379 4757 -51 251 -116 699 -116 803 l0 37 2255 0 2255 0 6 -27z"/>
</g>
</svg>
